<svg xmlns="http://www.w3.org/2000/svg" viewBox="0 0 96 120" x="0px" y="0px"><title>Artboard 5</title><path d="M79.4135,76.8193a1.9992,1.9992,0,0,0-2.8281,0c-3.2675,3.2636-38.3844,11.1424-49.1714,4C24.1465,77.5517,20,62.4952,20,50.2336c0-15.6639,0-23.5271,3.7891-31.1051C25.8144,15.0777,34.2186,12.234,38,12.234c8.8631,0,10,7.4824,10,14,0,.7343-.7813,1.6718-1.9883,2.3886a10.5986,10.5986,0,0,1-9.8869.0772C36.0536,27.9074,36,27.0974,36,26.2339a2,2,0,0,0-4,0c0,9.1835,3.7109,14.7049,6.9843,19.5779C41.6756,49.8157,44,53.2746,44,58.2335a2,2,0,0,0,4,0c0-6.16,3.3691-11.4959,9.244-14.6385,6.4609-3.4648,14.1737-3.3457,19.6463.3027a2,2,0,1,0,2.2187-3.328c-6.6777-4.4512-16.0018-4.6523-23.7537-.502a21.5954,21.5954,0,0,0-9.3924,9.57,48.8853,48.8853,0,0,0-3.6582-6.0566,36.119,36.119,0,0,1-5.3195-10.295,14.5162,14.5162,0,0,0,11.0655-1.2224C50.56,30.5756,52,28.4506,52,26.2339c0-11.9433-4.7109-18-14-18-4.6191,0-14.8007,3.127-17.7889,9.1054C16,25.7612,16,33.9408,16,50.2336c0,11.4823,3.75,28.5779,8.8905,33.6637,4.0215,2.6816,10.5761,3.7129,17.785,3.7129,15.2283,0,33.3766-4.6015,36.7379-7.9628A1.9993,1.9993,0,0,0,79.4135,76.8193Z"/><text x="0" y="111" fill="#000000" font-size="5px" font-weight="bold" font-family="'Helvetica Neue', Helvetica, Arial-Unicode, Arial, Sans-serif">Created by Nociconist</text><text x="0" y="116" fill="#000000" font-size="5px" font-weight="bold" font-family="'Helvetica Neue', Helvetica, Arial-Unicode, Arial, Sans-serif">from the Noun Project</text></svg>